<?xml version="1.0" encoding="UTF-8"?>
<!DOCTYPE svg PUBLIC "-//W3C//DTD SVG 1.1//EN" "http://www.w3.org/Graphics/SVG/1.1/DTD/svg11.dtd">
<!-- Creator: CorelDRAW 2020 (64 Bit) -->
<svg xmlns="http://www.w3.org/2000/svg" xml:space="preserve" width="200mm" height="200mm" version="1.1" style="shape-rendering:geometricPrecision; text-rendering:geometricPrecision; image-rendering:optimizeQuality; fill-rule:evenodd; clip-rule:evenodd"
viewBox="0 0 20000 20000"
 xmlns:xlink="http://www.w3.org/1999/xlink"
 xmlns:xodm="http://www.corel.com/coreldraw/odm/2003">
 <defs>
  <style type="text/css">
   <![CDATA[
    .str0 {stroke:#FEFEFE;stroke-width:70.56;stroke-miterlimit:10}
    .fil10 {fill:#FEFEFE;fill-rule:nonzero}
    .fil11 {fill:#0A506B;fill-rule:nonzero}
    .fil1 {fill:url(#id0)}
    .fil8 {fill:url(#id1)}
    .fil6 {fill:url(#id2)}
    .fil3 {fill:url(#id3)}
    .fil7 {fill:url(#id4)}
    .fil4 {fill:url(#id5)}
    .fil9 {fill:url(#id6)}
    .fil5 {fill:url(#id7)}
    .fil2 {fill:url(#id8)}
    .fil0 {fill:url(#id9)}
   ]]>
  </style>
  <linearGradient id="id0" gradientUnits="userSpaceOnUse" x1="10688.9" y1="8655.56" x2="12006.48" y2="8499.29">
   <stop offset="0" style="stop-opacity:1; stop-color:#0A86A0"/>
   <stop offset="1" style="stop-opacity:1; stop-color:#1BB0D0"/>
  </linearGradient>
  <linearGradient id="id1" gradientUnits="userSpaceOnUse" x1="4286.06" y1="2771.93" x2="15398.56" y2="11838.31">
   <stop offset="0" style="stop-opacity:1; stop-color:#016C98"/>
   <stop offset="0.141176" style="stop-opacity:1; stop-color:#016C98"/>
   <stop offset="0.270588" style="stop-opacity:1; stop-color:#006D98"/>
   <stop offset="0.478431" style="stop-opacity:1; stop-color:#5394B0"/>
   <stop offset="0.721569" style="stop-opacity:1; stop-color:#0E5370"/>
   <stop offset="1" style="stop-opacity:1; stop-color:#014961"/>
  </linearGradient>
  <linearGradient id="id2" gradientUnits="userSpaceOnUse" xlink:href="#id0" x1="8717.07" y1="8323.23" x2="10754.12" y2="8081.63">
  </linearGradient>
  <linearGradient id="id3" gradientUnits="userSpaceOnUse" xlink:href="#id0" x1="7883.35" y1="11235.35" x2="9200.93" y2="11079.08">
  </linearGradient>
  <linearGradient id="id4" gradientUnits="userSpaceOnUse" xlink:href="#id0" x1="7414.04" y1="8615.72" x2="9832.62" y2="8328.88">
  </linearGradient>
  <linearGradient id="id5" gradientUnits="userSpaceOnUse" xlink:href="#id0" x1="9135.73" y1="11661.06" x2="11173.31" y2="11419.41">
  </linearGradient>
  <linearGradient id="id6" gradientUnits="userSpaceOnUse" x1="10978.64" y1="10996.3" x2="9338.99" y2="9143.22">
   <stop offset="0" style="stop-opacity:1; stop-color:#0A87A1"/>
   <stop offset="1" style="stop-opacity:1; stop-color:#1BAFCF"/>
  </linearGradient>
  <linearGradient id="id7" gradientUnits="userSpaceOnUse" xlink:href="#id0" x1="10847.02" y1="9750.95" x2="12449.66" y2="9560.88">
  </linearGradient>
  <linearGradient id="id8" gradientUnits="userSpaceOnUse" xlink:href="#id0" x1="10058.74" y1="11407.47" x2="12476.02" y2="11120.79">
  </linearGradient>
  <linearGradient id="id9" gradientUnits="userSpaceOnUse" xlink:href="#id0" x1="7440.43" y1="10176.36" x2="9040.86" y2="9986.55">
  </linearGradient>
 </defs>
 <g id="Camada_x0020_1">
  <metadata id="CorelCorpID_0Corel-Layer"/>
  <g id="_2151647659840">
   <path class="fil0" d="M7777.1 11162.6l12.48 2.27c15.49,-15.59 121.1,-228.24 141.45,-268.29 46.03,-90.64 95.58,-184.48 141.81,-275.5 185.23,-364.71 383,-730.79 567.97,-1095.99 45.85,-90.53 95.37,-184.06 141.82,-275.5 23.8,-46.86 133.71,-244.94 137.77,-278.68l-903.85 280.46c-49.4,15.2 -544.44,164.21 -544.94,176.02l-22.51 91.35c-42.96,297.52 -37.01,406.74 -2.82,706.94 7.25,63.67 61.45,288.25 80.52,347.73 24.18,75.42 44.95,139.56 72.62,212.41 24.83,65.37 52.43,131.25 81.97,193.61 26.61,56.15 61.56,131.93 95.71,183.17z"/>
   <path class="fil1" d="M11288.63 9802.74l17.22 -9.15c18.06,-19.55 70.57,-129.07 88.32,-160.65 80.27,-142.8 189.09,-374.1 262.44,-496.8 29.37,-49.12 348.06,-652.14 346.53,-665.06 -16.61,-44.96 -96.58,-146.13 -129.72,-188.39 -49.24,-62.8 -97.28,-111.9 -150.54,-168.89 -183.07,-195.9 -499.39,-395.43 -733.18,-502.35 -72.19,-33.01 -385.1,-162.99 -443.29,-157.3 11.41,18.3 36.94,114.98 45.89,142.49l138.64 440.11c31.68,96.75 62.64,193.66 91.53,292.23l466.16 1473.76z"/>
   <path class="fil2" d="M10035.39 11210.64l333.5 178.96c103.02,52.18 986.68,530.31 1006.05,529.83 69.2,-14.13 301.82,-218.53 359.08,-278.84 188.56,-198.59 267.12,-298.98 402.24,-533.89 73.47,-127.72 264.77,-548.74 261.62,-644.71 -18.71,12.57 -110.74,36.77 -141.34,46.8 -341.16,111.83 -698.01,214.59 -1039.21,326.52 -368.2,120.79 -746.36,230.72 -1112.49,350.6 -25.83,8.46 -44.69,10.46 -66.38,22.6 -0.63,0.35 -2.07,1.38 -3.07,2.13z"/>
   <path class="fil3" d="M8344.56 11780.46l58.53 46.06c99.39,91.54 313.22,208.81 436.72,271.55 73.01,37.1 443.11,192.24 504.54,190.31 -57.2,-156.24 -131.55,-420.99 -186.09,-587.54 -110.55,-337.61 -213.8,-695.5 -324.97,-1034.26l-233.02 -742.56c-23.03,19.51 -157.07,283.52 -181.49,331.5 -56.85,111.72 -120.89,222.24 -177.54,334.62 -49.09,97.38 -356.08,658.06 -354.32,675.29 27,72.68 153.78,224.25 208.03,282.82 73.15,78.99 161.77,172.77 249.61,232.21z"/>
   <path class="fil4" d="M9489.66 12310.12c213.68,49.97 466.34,64.37 685.46,38.36 37.3,-4.43 97.73,-7.94 131.85,-16.1 118.37,-28.32 221.51,-40.9 346.16,-81.76 67.39,-22.1 148.1,-45.51 211.69,-73.19 63.97,-27.85 337.93,-140 376.67,-183.17l-271.1 -142.85c-88.46,-47.66 -185.06,-95.75 -275.58,-141.72l-1100.94 -568.61c-66.63,-33.84 -526.65,-277.1 -553.12,-280.94l448.91 1449.98z"/>
   <path class="fil5" d="M12112.86 8573.17l-11.92 2.41 -1133.73 2188.76c56.8,-5.07 1117.99,-342.39 1271.46,-389.62 52.47,-16.14 133.55,-37.44 180.84,-59.31 77.63,-247.96 53.81,-546.53 24.21,-804.51 -3.25,-28.29 -4.93,-35.56 -12.02,-60.89l-35.73 -176.16c-32.79,-122.46 -59.87,-203.49 -105.33,-323.17 -25.13,-66.16 -52.1,-130.07 -81.98,-193.6 -20.25,-43.05 -69.73,-152.21 -95.8,-183.91z"/>
   <path class="fil6" d="M8648.46 7744.75l2200.79 1139.12c-3.5,-38.76 -96.19,-327.45 -109.21,-367.21l-168.36 -540.82c-16.8,-60.75 -40.78,-122.99 -57.64,-182.97 -19.26,-68.53 -105.88,-327.91 -111,-364.43l-205.63 -36.67c-72,-9.09 -154.84,-12.31 -228.8,-14.19 -77.51,-1.97 -380.89,21.4 -448.78,42.4 -23.3,7.2 -38.63,5.71 -61.67,11.16 -312.42,73.9 -516.52,152.9 -789.64,299.73l-20.06 13.88z"/>
   <path class="fil7" d="M7492.17 9274.51l1326.86 -416.21c50.47,-16.12 98.75,-32.11 148.99,-46.22 97.63,-27.42 198.4,-65.37 296.04,-93.99l592.47 -187.66 -1001.81 -535.22c-64.11,-32.51 -298.29,-162.96 -339.6,-178.14 -22.23,16.2 -67.05,41 -96.58,60.26 -31.51,20.55 -61.99,46.06 -91.86,69.42 -209.75,164.09 -294.74,291.24 -453.06,493.86 -84.81,108.55 -210.47,361.11 -266.56,499.01 -31.36,77.1 -107.15,267.47 -114.89,334.89z"/>
  </g>
  <path class="fil8" d="M4394.92 7901.58c360.08,-135.97 701.28,-261.25 1069.16,-377.42 372.75,-117.71 754.1,-224.52 1134.44,-314.71 2480.71,-588.22 5044.48,-627.35 7378.61,526.58 4.7,393.36 1.18,788.49 1.18,1182.04 0,469.17 48.85,618.57 -130.59,1052.66 -208.58,504.57 -563.62,1040.85 -913.63,1459.79 -724.07,866.66 -1649.57,1599.4 -2682.53,2062.91 -237.11,106.39 -168.18,116.96 -412.23,10.08 -936.47,-410.07 -1746.16,-952.78 -2459.27,-1697.82 -387.25,-404.6 -743.11,-867.4 -1017.08,-1356.39 -117.82,-210.26 -320.13,-602.58 -347.35,-835.52 -11,-94.1 -4.29,-195.12 -4.25,-290.15 0.04,-100.15 -0.48,-200.36 -0.48,-300.54 0,-198.02 0.93,-396.17 -0.93,-594.17l-1712.3 533.51c-3.14,269.35 -23.57,536.68 42.63,799.9 173.71,690.79 356.19,1194.69 712.32,1829.34 795.52,1417.69 2083.11,2520.79 3496,3295.19 366.69,200.99 755.58,392.11 1142.94,549.45 344.26,139.82 246.98,167.23 600.11,14.84 199.55,-86.11 392.4,-168.19 588.31,-263.72 1455.96,-709.92 2800.61,-1722.3 3716.4,-3074.86 520.67,-769 814.64,-1455.92 1040,-2355.82 70.76,-282.55 48.93,-510.06 50.43,-796.46l-0.2 -2548.66c-343.92,-109.74 -703.45,-257.29 -1044.06,-384.22 -352.65,-131.42 -706.16,-255.98 -1064.64,-370.59 -768.19,-245.61 -1548.5,-423.8 -2350.79,-512.41 -903.66,-99.81 -1810.7,-88.72 -2713.92,10 -612.99,66.99 -1232.26,172.38 -1834.62,307.52 -186.19,41.78 -396.67,103.96 -580.44,134.54l-3.76 -1756.86c322.72,-98.43 649.55,-215.78 970.22,-322.95l1952.71 -651.75c322.76,-107.83 657.27,-211.26 975.85,-327.7 88.47,-32.33 160.63,10.9 244.08,40.04l2660.83 916.95c261.15,89.44 736.81,265.91 972.44,332.7l-4.28 1186.38 1756.2 578.81 1.18 -3045.15c-164.29,-77.59 -1676.6,-577.52 -1890.81,-650.67l-2855.74 -966.95c-158.42,-53.51 -318.39,-106.26 -476.02,-161.68 -79.55,-27.97 -155.81,-53.68 -235.36,-83.01 -96.87,-35.7 -141.13,-26.73 -235.01,9.97 -152.24,59.51 -322.8,109.01 -479.35,160.8l-4306.56 1427.51c-156.26,51.86 -324.27,101.43 -476.93,160.15 -62.19,23.93 -193.82,44.46 -235.24,79.68 -67.01,56.99 -39.78,204.98 -37.45,284.81 6.01,206.28 -1.52,427.41 -1.52,635.55l0 1911.34c0,847.55 -9.22,1700.22 1.3,2547.14z"/>
  <path class="fil9" d="M9954.14 9103.54c437.16,0 791.54,354.38 791.54,791.54 0,437.16 -354.38,791.54 -791.54,791.54 -437.16,0 -791.54,-354.38 -791.54,-791.54 0,-437.16 354.38,-791.54 791.54,-791.54z"/>
  <g id="vecteezy_magnifying-glass-icon-vector-search-loupe-lens-glass_.eps">
   <path class="fil10 str0" d="M9416.45 9608.19c-40.3,78.41 -60.85,162.58 -61.05,250.17 -0.07,25.52 20.59,46.28 46.12,46.35 25.54,0.06 46.29,-20.59 46.34,-46.13 0.17,-72.83 17.28,-142.84 50.84,-208.12 66.71,-129.78 192.72,-220.79 337.11,-243.44 15.17,-2.38 27.46,-11.89 33.98,-24.57 4.32,-8.41 6.11,-18.22 4.53,-28.28 -3.95,-25.22 -27.62,-42.46 -52.85,-38.5 -173.43,27.22 -324.85,136.56 -405.02,292.52z"/>
  </g>
  <path class="fil11" d="M4289.09 16265.12c-523.8,0 -728.41,35.85 -728.41,387.49 0,305.65 245.81,329.64 728.41,369.15 311.01,25.68 346,18.35 346,56.45 0,54.46 -31.6,51.64 -316.65,51.64 -303.67,0 -333.3,-16.37 -333.3,-86.92 -50.24,0 -407.81,0 -407.81,0 0,346 95.95,408.09 723.33,408.09 681,0 795.58,-64.06 795.58,-368.58 0,-305.65 -141.11,-314.96 -800.66,-368.58 -298.59,-24.56 -320.04,-25.97 -322.86,-57.29 0,-44.03 25.12,-58.42 326.25,-58.42 311.29,0 335.56,34.99 335.56,97.36 66.6,0 420.23,0 420.23,0 0,-343.46 -143.93,-430.39 -765.67,-430.39l0 0zm895.49 -2.82l0 1188.72 1311.77 0 0 -329.92 -918.07 0 0 -106.96 859.65 0 0 -316.65 -859.65 0 0 -105.27 918.07 0 0 -329.92 -1311.77 0zm2915.35 1188.72l0 -1189.56 -393.7 0 0 704.7 -572.34 -704.7 -548.92 0 0 1189.56 393.7 0 0 -716.56 582.5 716.56 538.76 0zm93.7 -1189.56l0 393.69 587.86 0 0 795.87 393.7 0 0 -795.87 588.15 0 0 -393.69 -1569.71 0zm1676.39 1189.56l393.7 0 0 -1188.72 -393.7 0 0 1188.72zm2024.66 0l0 -1189.56 -393.7 0 0 704.7 -572.34 -704.7 -548.92 0 0 1189.56 393.7 0 0 -716.56 582.5 716.56 538.76 0zm125.87 -1188.72l0 1188.72 1311.77 0 0 -329.92 -918.07 0 0 -106.96 859.65 0 0 -316.65 -859.65 0 0 -105.27 918.07 0 0 -329.92 -1311.77 0zm1831.34 795.02l0 -795.86 -393.7 0 0 1189.56 1255.88 0 0 -393.7 -862.18 0zm2051.18 -791.63l-613.27 0 -532.55 1185.33 454.66 0 89.46 -198.97 587.59 0 89.46 198.97 457.2 0 -532.55 -1185.33zm-461.15 642.62l153.24 -310.45 153.25 310.45 -306.49 0z"/>
 </g>
</svg>
